<svg width="49" height="51" viewBox="0 0 49 51" fill="none" xmlns="http://www.w3.org/2000/svg">
<path d="M33.2429 15.9375C31.8105 7.04238 28.4319 0.796875 24.5 0.796875C20.5681 0.796875 17.1895 7.04238 15.7571 15.9375H33.2429ZM15.0161 25.5C15.0161 27.7113 15.1347 29.833 15.3421 31.875H33.648C33.8554 29.833 33.974 27.7113 33.974 25.5C33.974 23.2887 33.8554 21.167 33.648 19.125H15.3421C15.1347 21.167 15.0161 23.2887 15.0161 25.5ZM47.0933 15.9375C44.2679 9.17402 38.548 3.94453 31.4845 1.83281C33.895 5.19961 35.5546 10.2697 36.424 15.9375H47.0933ZM17.5056 1.83281C10.452 3.94453 4.72218 9.17402 1.90665 15.9375H12.576C13.4355 10.2697 15.0952 5.19961 17.5056 1.83281ZM48.1504 19.125H36.8192C37.0266 21.2168 37.1452 23.3584 37.1452 25.5C37.1452 27.6416 37.0266 29.7832 36.8192 31.875H48.1405C48.6839 29.833 48.9901 27.7113 48.9901 25.5C48.9901 23.2887 48.6839 21.167 48.1504 19.125ZM11.8548 25.5C11.8548 23.3584 11.9734 21.2168 12.1808 19.125H0.849597C0.316129 21.167 0 23.2887 0 25.5C0 27.7113 0.316129 29.833 0.849597 31.875H12.171C11.9734 29.7832 11.8548 27.6416 11.8548 25.5ZM15.7571 35.0625C17.1895 43.9576 20.5681 50.2031 24.5 50.2031C28.4319 50.2031 31.8105 43.9576 33.2429 35.0625H15.7571ZM31.4944 49.1672C38.548 47.0555 44.2778 41.826 47.1032 35.0625H36.4339C35.5645 40.7303 33.9048 45.8004 31.4944 49.1672ZM1.90665 35.0625C4.73206 41.826 10.452 47.0555 17.5155 49.1672C15.105 45.8004 13.4454 40.7303 12.576 35.0625H1.90665Z" fill="#A5C6F9"/>
</svg>
