<svg width="45" height="45" viewBox="0 0 45 45" fill="none" xmlns="http://www.w3.org/2000/svg">
<g clip-path="url(#clip0_49:2)">
<path d="M43.7611 12.4905L39.7094 16.5422C39.2963 16.9553 38.6283 16.9553 38.2152 16.5422L28.4594 6.78638C28.0463 6.37329 28.0463 5.70533 28.4594 5.29224L32.5111 1.24048C34.1547 -0.403076 36.8265 -0.403076 38.4789 1.24048L43.7611 6.52271C45.4135 8.16626 45.4135 10.8381 43.7611 12.4905ZM24.9789 8.77271L1.89882 31.8528L0.035538 42.5315C-0.219345 43.9729 1.03749 45.221 2.4789 44.9749L13.1576 43.1028L36.2377 20.0227C36.6508 19.6096 36.6508 18.9417 36.2377 18.5286L26.4818 8.77271C26.0599 8.35962 25.392 8.35962 24.9789 8.77271V8.77271ZM10.9076 29.8753C10.4242 29.3919 10.4242 28.6184 10.9076 28.135L24.4428 14.5999C24.9262 14.1165 25.6996 14.1165 26.183 14.5999C26.6664 15.0833 26.6664 15.8567 26.183 16.3401L12.6478 29.8753C12.1644 30.3587 11.391 30.3587 10.9076 29.8753V29.8753ZM7.73476 37.2669H11.9535V40.4573L6.28456 41.4505L3.55116 38.7171L4.54433 33.0481H7.73476V37.2669Z" fill="#A5C6F9"/>
</g>
<defs>
<clipPath id="clip0_49:2">
<rect width="45" height="45" fill="white"/>
</clipPath>
</defs>
</svg>
